<svg width="1552" height="1061" viewBox="0 0 1552 1061" fill="none" xmlns="http://www.w3.org/2000/svg">
<path d="M1004.31 47.5928C1007.18 45.9842 1009.93 44.4494 1012.53 42.9665L1045.73 136.372C1042.48 138.26 1038.92 140.253 1035.08 142.4C1016.68 152.68 991.983 166.487 965.925 189.219C932.916 218.017 897.65 261.143 869.031 329.932C863.601 342.984 852.231 353.285 835.966 362.465C819.696 371.647 799.037 379.431 775.65 387.717C771.573 389.161 767.418 390.619 763.195 392.1C719.197 407.536 667.837 425.555 621.717 457.547C571.797 492.174 560.485 531.474 550.649 565.647L549.87 568.351C544.843 585.766 540.046 601.346 530.661 614.664C521.388 627.822 507.428 639.028 483.595 647.062C447.597 659.198 373.014 679.183 305.355 618.267C289.669 604.144 268.329 605.959 245.699 616.226C222.965 626.54 197.597 645.904 172.23 669.388C123.443 714.552 73.7446 775.819 41.3782 820.496L10.1481 727.856C42.1952 683.096 93.3273 619.547 143.293 573.292C168.454 550 193.072 531.327 214.631 521.546C236.293 511.718 253.554 511.378 265.625 522.247C336.755 586.288 415.3 564.975 451.777 552.678C476.994 544.177 488.021 536.516 502.828 517.305C515.413 500.978 518.196 485.885 523.185 468.602C523.423 467.777 523.662 466.949 523.9 466.12L523.929 466.021C533.691 432.115 544.334 395.152 591.904 362.154C637.085 330.814 687.437 313.141 731.547 297.658C735.74 296.186 739.877 294.734 743.948 293.292C767.278 285.027 788.566 277.038 805.525 267.466C822.49 257.892 835.631 246.459 842.046 231.038C870.194 163.379 904.734 121.267 936.812 93.2817C962.168 71.1613 985.935 57.8686 1004.31 47.5928Z" fill="#DF9C49"/>
<path d="M1038.68 149.562C1042.14 147.628 1045.41 145.802 1048.46 144.043L1081.65 237.433C1078.01 239.588 1073.92 241.873 1069.46 244.365L1069.45 244.369C1051.06 254.649 1026.36 268.456 1000.3 291.188C967.291 319.986 932.024 363.112 903.406 431.901C897.976 444.953 886.606 455.254 870.341 464.434C854.071 473.616 833.412 481.4 810.025 489.686C805.948 491.13 801.793 492.588 797.57 494.069C753.572 509.505 702.211 527.524 656.092 559.516C606.172 594.143 594.86 633.443 585.024 667.616C584.871 668.148 584.718 668.679 584.566 669.208C584.459 669.579 584.352 669.95 584.245 670.32C579.218 687.735 574.421 703.315 565.036 716.633C555.763 729.79 541.803 740.997 517.97 749.031C481.972 761.166 407.389 781.152 339.73 720.236C324.044 706.113 302.704 707.928 280.074 718.195C257.34 728.509 231.972 747.873 206.605 771.357C157.818 816.521 108.119 877.788 75.753 922.465L44.523 829.825C76.57 785.065 127.702 721.516 177.668 675.261C202.829 651.969 227.446 633.296 249.006 623.515C270.668 613.687 287.929 613.347 300 624.216C371.13 688.257 449.675 666.944 486.152 654.647C511.369 646.146 526.822 634.005 537.203 619.274C547.472 604.704 552.571 587.854 557.56 570.571C557.808 569.713 558.055 568.853 558.304 567.99C568.066 534.084 578.709 497.12 626.279 464.123C671.46 432.783 721.812 415.109 765.922 399.627C770.115 398.155 774.252 396.703 778.323 395.261C801.653 386.996 822.941 379.007 839.9 369.435C856.864 359.861 870.005 348.427 876.421 333.007C904.569 265.348 939.109 223.236 971.187 195.251C996.542 173.13 1020.31 159.838 1038.68 149.562Z" fill="white"/>
<path d="M1073.06 251.531C1077.11 249.265 1080.9 247.146 1084.38 245.112L1117.57 338.482L1116.93 338.868C1113.06 341.179 1108.66 343.634 1103.83 346.333L1103.83 346.338C1085.43 356.618 1060.73 370.424 1034.68 393.157C1001.67 421.955 966.399 465.081 937.781 533.87C932.351 546.922 920.981 557.223 904.716 566.403C888.446 575.585 867.787 583.369 844.399 591.655C840.323 593.099 836.167 594.557 831.944 596.038C787.946 611.474 736.586 629.493 690.467 661.484C640.546 696.112 629.235 735.412 619.399 769.585L619.316 769.873C619.083 770.681 618.851 771.487 618.62 772.289C613.593 789.704 608.796 805.284 599.411 818.602C590.138 831.759 576.178 842.966 552.344 851C516.347 863.135 441.763 883.12 374.105 822.205C358.419 808.082 337.079 809.897 314.448 820.164C291.715 830.478 266.347 849.842 240.98 873.325C192.193 918.49 142.494 979.757 110.128 1024.43L78.8978 931.794C110.945 887.034 162.077 823.485 212.042 777.23C237.203 753.937 261.821 735.265 283.38 725.484C305.043 715.656 322.304 715.316 334.375 726.184C405.505 790.225 484.05 768.912 520.526 756.616C545.744 748.115 561.197 735.974 571.578 721.243C581.847 706.673 586.946 689.823 591.935 672.54C592.183 671.682 592.43 670.821 592.679 669.959C602.441 636.053 613.084 599.089 660.654 566.092C705.834 534.752 756.188 517.078 800.298 501.596C804.49 500.124 808.627 498.672 812.697 497.23C836.028 488.965 857.316 480.975 874.275 471.404C891.239 461.83 904.38 450.396 910.796 434.975C938.944 367.317 973.484 325.205 1005.56 297.22C1030.92 275.099 1054.68 261.806 1073.06 251.531Z" fill="#015500"/>
<path d="M1004.31 47.5928C1007.18 45.9842 1009.93 44.4494 1012.53 42.9665L1045.73 136.372C1042.48 138.26 1038.92 140.253 1035.08 142.4C1016.68 152.68 991.983 166.487 965.925 189.219C932.916 218.017 897.65 261.143 869.031 329.932C863.601 342.984 852.231 353.285 835.966 362.465C819.696 371.647 799.037 379.431 775.65 387.717C771.573 389.161 767.418 390.619 763.195 392.1C719.197 407.536 667.837 425.555 621.717 457.547C571.797 492.174 560.485 531.474 550.649 565.647L549.87 568.351C544.843 585.766 540.046 601.346 530.661 614.664C521.388 627.822 507.428 639.028 483.595 647.062C447.597 659.198 373.014 679.183 305.355 618.267C289.669 604.144 268.329 605.959 245.699 616.226C222.965 626.54 197.597 645.904 172.23 669.388C123.443 714.552 73.7446 775.819 41.3782 820.496L10.1481 727.856C42.1952 683.096 93.3273 619.547 143.293 573.292C168.454 550 193.072 531.327 214.631 521.546C236.293 511.718 253.554 511.378 265.625 522.247C336.755 586.288 415.3 564.975 451.777 552.678C476.994 544.177 488.021 536.516 502.828 517.305C515.413 500.978 518.196 485.885 523.185 468.602C523.423 467.777 523.662 466.949 523.9 466.12L523.929 466.021C533.691 432.115 544.334 395.152 591.904 362.154C637.085 330.814 687.437 313.141 731.547 297.658C735.74 296.186 739.877 294.734 743.948 293.292C767.278 285.027 788.566 277.038 805.525 267.466C822.49 257.892 835.631 246.459 842.046 231.038C870.194 163.379 904.734 121.267 936.812 93.2817C962.168 71.1613 985.935 57.8686 1004.31 47.5928Z" fill="url(#paint0_linear_95_57)"/>
<path d="M1038.68 149.562C1042.14 147.628 1045.41 145.802 1048.46 144.043L1081.65 237.433C1078.01 239.588 1073.92 241.873 1069.46 244.365L1069.45 244.369C1051.06 254.649 1026.36 268.456 1000.3 291.188C967.291 319.986 932.024 363.112 903.406 431.901C897.976 444.953 886.606 455.254 870.341 464.434C854.071 473.616 833.412 481.4 810.025 489.686C805.948 491.13 801.793 492.588 797.57 494.069C753.572 509.505 702.211 527.524 656.092 559.516C606.172 594.143 594.86 633.443 585.024 667.616C584.871 668.148 584.718 668.679 584.566 669.208C584.459 669.579 584.352 669.95 584.245 670.32C579.218 687.735 574.421 703.315 565.036 716.633C555.763 729.79 541.803 740.997 517.97 749.031C481.972 761.166 407.389 781.152 339.73 720.236C324.044 706.113 302.704 707.928 280.074 718.195C257.34 728.509 231.972 747.873 206.605 771.357C157.818 816.521 108.119 877.788 75.753 922.465L44.523 829.825C76.57 785.065 127.702 721.516 177.668 675.261C202.829 651.969 227.446 633.296 249.006 623.515C270.668 613.687 287.929 613.347 300 624.216C371.13 688.257 449.675 666.944 486.152 654.647C511.369 646.146 526.822 634.005 537.203 619.274C547.472 604.704 552.571 587.854 557.56 570.571C557.808 569.713 558.055 568.853 558.304 567.99C568.066 534.084 578.709 497.12 626.279 464.123C671.46 432.783 721.812 415.109 765.922 399.627C770.115 398.155 774.252 396.703 778.323 395.261C801.653 386.996 822.941 379.007 839.9 369.435C856.864 359.861 870.005 348.427 876.421 333.007C904.569 265.348 939.109 223.236 971.187 195.251C996.542 173.13 1020.31 159.838 1038.68 149.562Z" fill="url(#paint1_linear_95_57)"/>
<path d="M1073.06 251.531C1077.11 249.265 1080.9 247.146 1084.38 245.112L1117.57 338.482L1116.93 338.868C1113.06 341.179 1108.66 343.634 1103.83 346.333L1103.83 346.338C1085.43 356.618 1060.73 370.424 1034.68 393.157C1001.67 421.955 966.399 465.081 937.781 533.87C932.351 546.922 920.981 557.223 904.716 566.403C888.446 575.585 867.787 583.369 844.399 591.655C840.323 593.099 836.167 594.557 831.944 596.038C787.946 611.474 736.586 629.493 690.467 661.484C640.546 696.112 629.235 735.412 619.399 769.585L619.316 769.873C619.083 770.681 618.851 771.487 618.62 772.289C613.593 789.704 608.796 805.284 599.411 818.602C590.138 831.759 576.178 842.966 552.344 851C516.347 863.135 441.763 883.12 374.105 822.205C358.419 808.082 337.079 809.897 314.448 820.164C291.715 830.478 266.347 849.842 240.98 873.325C192.193 918.49 142.494 979.757 110.128 1024.43L78.8978 931.794C110.945 887.034 162.077 823.485 212.042 777.23C237.203 753.937 261.821 735.265 283.38 725.484C305.043 715.656 322.304 715.316 334.375 726.184C405.505 790.225 484.05 768.912 520.526 756.616C545.744 748.115 561.197 735.974 571.578 721.243C581.847 706.673 586.946 689.823 591.935 672.54C592.183 671.682 592.43 670.821 592.679 669.959C602.441 636.053 613.084 599.089 660.654 566.092C705.834 534.752 756.188 517.078 800.298 501.596C804.49 500.124 808.627 498.672 812.697 497.23C836.028 488.965 857.316 480.975 874.275 471.404C891.239 461.83 904.38 450.396 910.796 434.975C938.944 367.317 973.484 325.205 1005.56 297.22C1030.92 275.099 1054.68 261.806 1073.06 251.531Z" fill="url(#paint2_linear_95_57)"/>
<path d="M1004.31 47.5928C1007.18 45.9842 1009.93 44.4494 1012.53 42.9665L1045.73 136.372C1042.48 138.26 1038.92 140.253 1035.08 142.4C1016.68 152.68 991.983 166.487 965.925 189.219C932.916 218.017 897.65 261.143 869.031 329.932C863.601 342.984 852.231 353.285 835.966 362.465C819.696 371.647 799.037 379.431 775.65 387.717C771.573 389.161 767.418 390.619 763.195 392.1C719.197 407.536 667.837 425.555 621.717 457.547C571.797 492.174 560.485 531.474 550.649 565.647L549.87 568.351C544.843 585.766 540.046 601.346 530.661 614.664C521.388 627.822 507.428 639.028 483.595 647.062C447.597 659.198 373.014 679.183 305.355 618.267C289.669 604.144 268.329 605.959 245.699 616.226C222.965 626.54 197.597 645.904 172.23 669.388C123.443 714.552 73.7446 775.819 41.3782 820.496L10.1481 727.856C42.1952 683.096 93.3273 619.547 143.293 573.292C168.454 550 193.072 531.327 214.631 521.546C236.293 511.718 253.554 511.378 265.625 522.247C336.755 586.288 415.3 564.975 451.777 552.678C476.994 544.177 488.021 536.516 502.828 517.305C515.413 500.978 518.196 485.885 523.185 468.602C523.423 467.777 523.662 466.949 523.9 466.12L523.929 466.021C533.691 432.115 544.334 395.152 591.904 362.154C637.085 330.814 687.437 313.141 731.547 297.658C735.74 296.186 739.877 294.734 743.948 293.292C767.278 285.027 788.566 277.038 805.525 267.466C822.49 257.892 835.631 246.459 842.046 231.038C870.194 163.379 904.734 121.267 936.812 93.2817C962.168 71.1613 985.935 57.8686 1004.31 47.5928Z" fill="#DF9C49"/>
<path d="M1038.68 149.562C1042.14 147.628 1045.41 145.802 1048.46 144.043L1081.65 237.433C1078.01 239.588 1073.92 241.873 1069.46 244.365L1069.45 244.369C1051.06 254.649 1026.36 268.456 1000.3 291.188C967.291 319.986 932.024 363.112 903.406 431.901C897.976 444.953 886.606 455.254 870.341 464.434C854.071 473.616 833.412 481.4 810.025 489.686C805.948 491.13 801.793 492.588 797.57 494.069C753.572 509.505 702.211 527.524 656.092 559.516C606.172 594.143 594.86 633.443 585.024 667.616C584.871 668.148 584.718 668.679 584.566 669.208C584.459 669.579 584.352 669.95 584.245 670.32C579.218 687.735 574.421 703.315 565.036 716.633C555.763 729.79 541.803 740.997 517.97 749.031C481.972 761.166 407.389 781.152 339.73 720.236C324.044 706.113 302.704 707.928 280.074 718.195C257.34 728.509 231.972 747.873 206.605 771.357C157.818 816.521 108.119 877.788 75.753 922.465L44.523 829.825C76.57 785.065 127.702 721.516 177.668 675.261C202.829 651.969 227.446 633.296 249.006 623.515C270.668 613.687 287.929 613.347 300 624.216C371.13 688.257 449.675 666.944 486.152 654.647C511.369 646.146 526.822 634.005 537.203 619.274C547.472 604.704 552.571 587.854 557.56 570.571C557.808 569.713 558.055 568.853 558.304 567.99C568.066 534.084 578.709 497.12 626.279 464.123C671.46 432.783 721.812 415.109 765.922 399.627C770.115 398.155 774.252 396.703 778.323 395.261C801.653 386.996 822.941 379.007 839.9 369.435C856.864 359.861 870.005 348.427 876.421 333.007C904.569 265.348 939.109 223.236 971.187 195.251C996.542 173.13 1020.31 159.838 1038.68 149.562Z" fill="white"/>
<path d="M1073.06 251.531C1077.11 249.265 1080.9 247.146 1084.38 245.112L1117.57 338.482L1116.93 338.868C1113.06 341.179 1108.66 343.634 1103.83 346.333L1103.83 346.338C1085.43 356.618 1060.73 370.424 1034.68 393.157C1001.67 421.955 966.399 465.081 937.781 533.87C932.351 546.922 920.981 557.223 904.716 566.403C888.446 575.585 867.787 583.369 844.399 591.655C840.323 593.099 836.167 594.557 831.944 596.038C787.946 611.474 736.586 629.493 690.467 661.484C640.546 696.112 629.235 735.412 619.399 769.585L619.316 769.873C619.083 770.681 618.851 771.487 618.62 772.289C613.593 789.704 608.796 805.284 599.411 818.602C590.138 831.759 576.178 842.966 552.344 851C516.347 863.135 441.763 883.12 374.105 822.205C358.419 808.082 337.079 809.897 314.448 820.164C291.715 830.478 266.347 849.842 240.98 873.325C192.193 918.49 142.494 979.757 110.128 1024.43L78.8978 931.794C110.945 887.034 162.077 823.485 212.042 777.23C237.203 753.937 261.821 735.265 283.38 725.484C305.043 715.656 322.304 715.316 334.375 726.184C405.505 790.225 484.05 768.912 520.526 756.616C545.744 748.115 561.197 735.974 571.578 721.243C581.847 706.673 586.946 689.823 591.935 672.54C592.183 671.682 592.43 670.821 592.679 669.959C602.441 636.053 613.084 599.089 660.654 566.092C705.834 534.752 756.188 517.078 800.298 501.596C804.49 500.124 808.627 498.672 812.697 497.23C836.028 488.965 857.316 480.975 874.275 471.404C891.239 461.83 904.38 450.396 910.796 434.975C938.944 367.317 973.484 325.205 1005.56 297.22C1030.92 275.099 1054.68 261.806 1073.06 251.531Z" fill="#015500"/>
<path d="M1004.31 47.5928C1007.18 45.9842 1009.93 44.4494 1012.53 42.9665L1045.73 136.372C1042.48 138.26 1038.92 140.253 1035.08 142.4C1016.68 152.68 991.983 166.487 965.925 189.219C932.916 218.017 897.65 261.143 869.031 329.932C863.601 342.984 852.231 353.285 835.966 362.465C819.696 371.647 799.037 379.431 775.65 387.717C771.573 389.161 767.418 390.619 763.195 392.1C719.197 407.536 667.837 425.555 621.717 457.547C571.797 492.174 560.485 531.474 550.649 565.647L549.87 568.351C544.843 585.766 540.046 601.346 530.661 614.664C521.388 627.822 507.428 639.028 483.595 647.062C447.597 659.198 373.014 679.183 305.355 618.267C289.669 604.144 268.329 605.959 245.699 616.226C222.965 626.54 197.597 645.904 172.23 669.388C123.443 714.552 73.7446 775.819 41.3782 820.496L10.1481 727.856C42.1952 683.096 93.3273 619.547 143.293 573.292C168.454 550 193.072 531.327 214.631 521.546C236.293 511.718 253.554 511.378 265.625 522.247C336.755 586.288 415.3 564.975 451.777 552.678C476.994 544.177 488.021 536.516 502.828 517.305C515.413 500.978 518.196 485.885 523.185 468.602C523.423 467.777 523.662 466.949 523.9 466.12L523.929 466.021C533.691 432.115 544.334 395.152 591.904 362.154C637.085 330.814 687.437 313.141 731.547 297.658C735.74 296.186 739.877 294.734 743.948 293.292C767.278 285.027 788.566 277.038 805.525 267.466C822.49 257.892 835.631 246.459 842.046 231.038C870.194 163.379 904.734 121.267 936.812 93.2817C962.168 71.1613 985.935 57.8686 1004.31 47.5928Z" fill="url(#paint3_linear_95_57)"/>
<path d="M1038.68 149.562C1042.14 147.628 1045.41 145.802 1048.46 144.043L1081.65 237.433C1078.01 239.588 1073.92 241.873 1069.46 244.365L1069.45 244.369C1051.06 254.649 1026.36 268.456 1000.3 291.188C967.291 319.986 932.024 363.112 903.406 431.901C897.976 444.953 886.606 455.254 870.341 464.434C854.071 473.616 833.412 481.4 810.025 489.686C805.948 491.13 801.793 492.588 797.57 494.069C753.572 509.505 702.211 527.524 656.092 559.516C606.172 594.143 594.86 633.443 585.024 667.616C584.871 668.148 584.718 668.679 584.566 669.208C584.459 669.579 584.352 669.95 584.245 670.32C579.218 687.735 574.421 703.315 565.036 716.633C555.763 729.79 541.803 740.997 517.97 749.031C481.972 761.166 407.389 781.152 339.73 720.236C324.044 706.113 302.704 707.928 280.074 718.195C257.34 728.509 231.972 747.873 206.605 771.357C157.818 816.521 108.119 877.788 75.753 922.465L44.523 829.825C76.57 785.065 127.702 721.516 177.668 675.261C202.829 651.969 227.446 633.296 249.006 623.515C270.668 613.687 287.929 613.347 300 624.216C371.13 688.257 449.675 666.944 486.152 654.647C511.369 646.146 526.822 634.005 537.203 619.274C547.472 604.704 552.571 587.854 557.56 570.571C557.808 569.713 558.055 568.853 558.304 567.99C568.066 534.084 578.709 497.12 626.279 464.123C671.46 432.783 721.812 415.109 765.922 399.627C770.115 398.155 774.252 396.703 778.323 395.261C801.653 386.996 822.941 379.007 839.9 369.435C856.864 359.861 870.005 348.427 876.421 333.007C904.569 265.348 939.109 223.236 971.187 195.251C996.542 173.13 1020.31 159.838 1038.68 149.562Z" fill="url(#paint4_linear_95_57)"/>
<path d="M1073.06 251.531C1077.11 249.265 1080.9 247.146 1084.38 245.112L1117.57 338.482L1116.93 338.868C1113.06 341.179 1108.66 343.634 1103.83 346.333L1103.83 346.338C1085.43 356.618 1060.73 370.424 1034.68 393.157C1001.67 421.955 966.399 465.081 937.781 533.87C932.351 546.922 920.981 557.223 904.716 566.403C888.446 575.585 867.787 583.369 844.399 591.655C840.323 593.099 836.167 594.557 831.944 596.038C787.946 611.474 736.586 629.493 690.467 661.484C640.546 696.112 629.235 735.412 619.399 769.585L619.316 769.873C619.083 770.681 618.851 771.487 618.62 772.289C613.593 789.704 608.796 805.284 599.411 818.602C590.138 831.759 576.178 842.966 552.344 851C516.347 863.135 441.763 883.12 374.105 822.205C358.419 808.082 337.079 809.897 314.448 820.164C291.715 830.478 266.347 849.842 240.98 873.325C192.193 918.49 142.494 979.757 110.128 1024.43L78.8978 931.794C110.945 887.034 162.077 823.485 212.042 777.23C237.203 753.937 261.821 735.265 283.38 725.484C305.043 715.656 322.304 715.316 334.375 726.184C405.505 790.225 484.05 768.912 520.526 756.616C545.744 748.115 561.197 735.974 571.578 721.243C581.847 706.673 586.946 689.823 591.935 672.54C592.183 671.682 592.43 670.821 592.679 669.959C602.441 636.053 613.084 599.089 660.654 566.092C705.834 534.752 756.188 517.078 800.298 501.596C804.49 500.124 808.627 498.672 812.697 497.23C836.028 488.965 857.316 480.975 874.275 471.404C891.239 461.83 904.38 450.396 910.796 434.975C938.944 367.317 973.484 325.205 1005.56 297.22C1030.92 275.099 1054.68 261.806 1073.06 251.531Z" fill="url(#paint5_linear_95_57)"/>
<path d="M508.702 0.814453H1551.33V1060.17H508.702V0.814453Z" fill="#D9D9D9"/>
<path d="M508.702 0.814453H1551.33V1060.17H508.702V0.814453Z" fill="#D9D9D9"/>
<defs>
<linearGradient id="paint0_linear_95_57" x1="-1.0321e-06" y1="484.238" x2="1575.2" y2="442.967" gradientUnits="userSpaceOnUse">
<stop stop-color="white" stop-opacity="0"/>
<stop offset="0.185635" stop-color="white" stop-opacity="0.0294118"/>
<stop offset="0.255" stop-color="white" stop-opacity="0.15"/>
<stop offset="0.302758" stop-color="white" stop-opacity="0.0295302"/>
<stop offset="0.464276" stop-color="white" stop-opacity="0.02"/>
<stop offset="0.495" stop-color="white" stop-opacity="0.08"/>
<stop offset="0.645929" stop-color="white" stop-opacity="0.02"/>
<stop offset="0.760426" stop-color="white" stop-opacity="0.02"/>
<stop offset="0.814897" stop-color="white" stop-opacity="0.1"/>
<stop offset="1" stop-color="white" stop-opacity="0"/>
</linearGradient>
<linearGradient id="paint1_linear_95_57" x1="-1.0321e-06" y1="484.238" x2="1575.2" y2="442.967" gradientUnits="userSpaceOnUse">
<stop stop-color="white" stop-opacity="0"/>
<stop offset="0.185635" stop-color="white" stop-opacity="0.0294118"/>
<stop offset="0.255" stop-color="white" stop-opacity="0.15"/>
<stop offset="0.302758" stop-color="white" stop-opacity="0.0295302"/>
<stop offset="0.464276" stop-color="white" stop-opacity="0.02"/>
<stop offset="0.495" stop-color="white" stop-opacity="0.08"/>
<stop offset="0.645929" stop-color="white" stop-opacity="0.02"/>
<stop offset="0.760426" stop-color="white" stop-opacity="0.02"/>
<stop offset="0.814897" stop-color="white" stop-opacity="0.1"/>
<stop offset="1" stop-color="white" stop-opacity="0"/>
</linearGradient>
<linearGradient id="paint2_linear_95_57" x1="-1.0321e-06" y1="484.238" x2="1575.2" y2="442.967" gradientUnits="userSpaceOnUse">
<stop stop-color="white" stop-opacity="0"/>
<stop offset="0.185635" stop-color="white" stop-opacity="0.0294118"/>
<stop offset="0.255" stop-color="white" stop-opacity="0.15"/>
<stop offset="0.302758" stop-color="white" stop-opacity="0.0295302"/>
<stop offset="0.464276" stop-color="white" stop-opacity="0.02"/>
<stop offset="0.495" stop-color="white" stop-opacity="0.08"/>
<stop offset="0.645929" stop-color="white" stop-opacity="0.02"/>
<stop offset="0.760426" stop-color="white" stop-opacity="0.02"/>
<stop offset="0.814897" stop-color="white" stop-opacity="0.1"/>
<stop offset="1" stop-color="white" stop-opacity="0"/>
</linearGradient>
<linearGradient id="paint3_linear_95_57" x1="-1.0321e-06" y1="484.238" x2="1575.2" y2="442.967" gradientUnits="userSpaceOnUse">
<stop stop-color="white" stop-opacity="0"/>
<stop offset="0.185635" stop-color="white" stop-opacity="0.0294118"/>
<stop offset="0.255" stop-color="white" stop-opacity="0.15"/>
<stop offset="0.302758" stop-color="white" stop-opacity="0.0295302"/>
<stop offset="0.464276" stop-color="white" stop-opacity="0.02"/>
<stop offset="0.495" stop-color="white" stop-opacity="0.08"/>
<stop offset="0.645929" stop-color="white" stop-opacity="0.02"/>
<stop offset="0.760426" stop-color="white" stop-opacity="0.02"/>
<stop offset="0.814897" stop-color="white" stop-opacity="0.1"/>
<stop offset="1" stop-color="white" stop-opacity="0"/>
</linearGradient>
<linearGradient id="paint4_linear_95_57" x1="-1.0321e-06" y1="484.238" x2="1575.2" y2="442.967" gradientUnits="userSpaceOnUse">
<stop stop-color="white" stop-opacity="0"/>
<stop offset="0.185635" stop-color="white" stop-opacity="0.0294118"/>
<stop offset="0.255" stop-color="white" stop-opacity="0.15"/>
<stop offset="0.302758" stop-color="white" stop-opacity="0.0295302"/>
<stop offset="0.464276" stop-color="white" stop-opacity="0.02"/>
<stop offset="0.495" stop-color="white" stop-opacity="0.08"/>
<stop offset="0.645929" stop-color="white" stop-opacity="0.02"/>
<stop offset="0.760426" stop-color="white" stop-opacity="0.02"/>
<stop offset="0.814897" stop-color="white" stop-opacity="0.1"/>
<stop offset="1" stop-color="white" stop-opacity="0"/>
</linearGradient>
<linearGradient id="paint5_linear_95_57" x1="-1.0321e-06" y1="484.238" x2="1575.2" y2="442.967" gradientUnits="userSpaceOnUse">
<stop stop-color="white" stop-opacity="0"/>
<stop offset="0.185635" stop-color="white" stop-opacity="0.0294118"/>
<stop offset="0.255" stop-color="white" stop-opacity="0.15"/>
<stop offset="0.302758" stop-color="white" stop-opacity="0.0295302"/>
<stop offset="0.464276" stop-color="white" stop-opacity="0.02"/>
<stop offset="0.495" stop-color="white" stop-opacity="0.08"/>
<stop offset="0.645929" stop-color="white" stop-opacity="0.02"/>
<stop offset="0.760426" stop-color="white" stop-opacity="0.02"/>
<stop offset="0.814897" stop-color="white" stop-opacity="0.1"/>
<stop offset="1" stop-color="white" stop-opacity="0"/>
</linearGradient>
</defs>
</svg>
