<svg width="509" height="522" viewBox="0 0 509 522" fill="none" xmlns="http://www.w3.org/2000/svg">
<g clip-path="url(#clip0_95_57)">
<path d="M1004.31 -460.407C1007.18 -462.016 1009.93 -463.551 1012.53 -465.034L1045.73 -371.628C1042.48 -369.74 1038.92 -367.747 1035.08 -365.6C1016.68 -355.32 991.983 -341.513 965.925 -318.781C932.916 -289.983 897.65 -246.857 869.031 -178.068C863.601 -165.016 852.231 -154.715 835.966 -145.535C819.696 -136.353 799.037 -128.569 775.65 -120.283C771.573 -118.839 767.418 -117.381 763.195 -115.9C719.197 -100.464 667.837 -82.4447 621.717 -50.4534C571.797 -15.8258 560.485 23.4738 550.649 57.6475L549.87 60.3513C544.843 77.7664 540.046 93.3461 530.661 106.664C521.388 119.822 507.428 131.028 483.595 139.062C447.597 151.198 373.014 171.183 305.355 110.267C289.669 96.1443 268.329 97.9587 245.699 108.226C222.965 118.54 197.597 137.904 172.23 161.388C123.443 206.552 73.7446 267.819 41.3782 312.496L10.1481 219.856C42.1952 175.096 93.3273 111.547 143.293 65.2921C168.454 41.9997 193.072 23.327 214.631 13.5458C236.293 3.71771 253.554 3.37851 265.625 14.2466C336.755 78.2875 415.3 56.9747 451.777 44.678C476.994 36.1771 488.021 28.5162 502.828 9.30548C515.413 -7.02182 518.196 -22.1146 523.185 -39.3979C523.423 -40.2234 523.662 -41.0507 523.9 -41.8799L523.929 -41.9787C533.691 -75.8845 544.334 -112.848 591.904 -145.846C637.085 -177.186 687.437 -194.859 731.547 -210.342C735.74 -211.814 739.877 -213.266 743.948 -214.708C767.278 -222.973 788.566 -230.962 805.525 -240.534C822.49 -250.108 835.631 -261.541 842.046 -276.962C870.194 -344.621 904.734 -386.733 936.812 -414.718C962.168 -436.839 985.935 -450.131 1004.31 -460.407Z" fill="#DF9C49"/>
<path d="M1038.68 -358.438C1042.14 -360.372 1045.41 -362.198 1048.46 -363.957L1081.65 -270.567C1078.01 -268.412 1073.92 -266.127 1069.46 -263.635L1069.45 -263.631C1051.06 -253.351 1026.36 -239.544 1000.3 -216.812C967.291 -188.014 932.024 -144.888 903.406 -76.099C897.976 -63.0469 886.606 -52.7459 870.341 -43.5663C854.071 -34.3837 833.412 -26.5997 810.025 -18.3144C805.948 -16.8702 801.793 -15.4124 797.57 -13.9308C753.572 1.50537 702.211 19.5244 656.092 51.5155C606.172 86.1431 594.86 125.443 585.024 159.616C584.871 160.148 584.718 160.679 584.566 161.208C584.459 161.579 584.352 161.95 584.245 162.32C579.218 179.735 574.421 195.315 565.036 208.633C555.763 221.79 541.803 232.997 517.97 241.031C481.972 253.166 407.389 273.152 339.73 212.236C324.044 198.113 302.704 199.928 280.074 210.195C257.34 220.509 231.972 239.873 206.605 263.357C157.818 308.521 108.119 369.788 75.753 414.465L44.523 321.825C76.57 277.065 127.702 213.516 177.668 167.261C202.829 143.969 227.446 125.296 249.006 115.515C270.668 105.687 287.929 105.347 300 116.216C371.13 180.257 449.675 158.944 486.152 146.647C511.369 138.146 526.822 126.005 537.203 111.274C547.472 96.7036 552.571 79.8544 557.56 62.5709C557.808 61.7128 558.055 60.8525 558.304 59.9903C568.066 26.0844 578.709 -10.8796 626.279 -43.8769C671.46 -75.2168 721.812 -92.8906 765.922 -108.373C770.115 -109.845 774.252 -111.297 778.323 -112.739C801.653 -121.004 822.941 -128.993 839.9 -138.565C856.864 -148.139 870.005 -159.573 876.421 -174.993C904.569 -242.652 939.109 -284.764 971.187 -312.749C996.542 -334.87 1020.31 -348.162 1038.68 -358.438Z" fill="white"/>
<path d="M1073.06 -256.469C1077.11 -258.735 1080.9 -260.854 1084.38 -262.888L1117.57 -169.518L1116.93 -169.132C1113.06 -166.821 1108.66 -164.366 1103.83 -161.667L1103.83 -161.662C1085.43 -151.382 1060.73 -137.576 1034.68 -114.843C1001.67 -86.0449 966.399 -42.9192 937.781 25.8698C932.351 38.9219 920.981 49.223 904.716 58.4027C888.446 67.5853 867.787 75.3692 844.399 83.6545C840.323 85.0986 836.167 86.5567 831.944 88.0383C787.946 103.474 736.586 121.493 690.467 153.484C640.546 188.112 629.235 227.411 619.399 261.585L619.316 261.873C619.083 262.681 618.851 263.487 618.62 264.289C613.593 281.704 608.796 297.284 599.411 310.602C590.138 323.759 576.178 334.966 552.344 343C516.347 355.135 441.763 375.12 374.105 314.205C358.419 300.082 337.079 301.896 314.448 312.164C291.715 322.478 266.347 341.842 240.98 365.325C192.193 410.49 142.494 471.757 110.128 516.434L78.8978 423.794C110.945 379.034 162.077 315.485 212.042 269.23C237.203 245.938 261.821 227.265 283.38 217.484C305.043 207.656 322.304 207.316 334.375 218.184C405.505 282.225 484.05 260.912 520.526 248.616C545.744 240.115 561.197 227.974 571.578 213.243C581.847 198.673 586.946 181.823 591.935 164.54C592.183 163.682 592.43 162.821 592.679 161.959C602.441 128.053 613.084 91.0894 660.654 58.0921C705.834 26.7521 756.188 9.07812 800.298 -6.40439C804.49 -7.87607 808.627 -9.328 812.697 -10.77C836.028 -19.0352 857.316 -27.0245 874.275 -36.5959C891.239 -46.1702 904.38 -57.6036 910.796 -73.0246C938.944 -140.683 973.484 -182.795 1005.56 -210.78C1030.92 -232.901 1054.68 -246.194 1073.06 -256.469Z" fill="#015500"/>
<path d="M1004.31 -460.407C1007.18 -462.016 1009.93 -463.551 1012.53 -465.034L1045.73 -371.628C1042.48 -369.74 1038.92 -367.747 1035.08 -365.6C1016.68 -355.32 991.983 -341.513 965.925 -318.781C932.916 -289.983 897.65 -246.857 869.031 -178.068C863.601 -165.016 852.231 -154.715 835.966 -145.535C819.696 -136.353 799.037 -128.569 775.65 -120.283C771.573 -118.839 767.418 -117.381 763.195 -115.9C719.197 -100.464 667.837 -82.4447 621.717 -50.4534C571.797 -15.8258 560.485 23.4738 550.649 57.6475L549.87 60.3513C544.843 77.7664 540.046 93.3461 530.661 106.664C521.388 119.822 507.428 131.028 483.595 139.062C447.597 151.198 373.014 171.183 305.355 110.267C289.669 96.1443 268.329 97.9587 245.699 108.226C222.965 118.54 197.597 137.904 172.23 161.388C123.443 206.552 73.7446 267.819 41.3782 312.496L10.1481 219.856C42.1952 175.096 93.3273 111.547 143.293 65.2921C168.454 41.9997 193.072 23.327 214.631 13.5458C236.293 3.71771 253.554 3.37851 265.625 14.2466C336.755 78.2875 415.3 56.9747 451.777 44.678C476.994 36.1771 488.021 28.5162 502.828 9.30548C515.413 -7.02182 518.196 -22.1146 523.185 -39.3979C523.423 -40.2234 523.662 -41.0507 523.9 -41.8799L523.929 -41.9787C533.691 -75.8845 544.334 -112.848 591.904 -145.846C637.085 -177.186 687.437 -194.859 731.547 -210.342C735.74 -211.814 739.877 -213.266 743.948 -214.708C767.278 -222.973 788.566 -230.962 805.525 -240.534C822.49 -250.108 835.631 -261.541 842.046 -276.962C870.194 -344.621 904.734 -386.733 936.812 -414.718C962.168 -436.839 985.935 -450.131 1004.31 -460.407Z" fill="url(#paint0_linear_95_57)"/>
<path d="M1038.68 -358.438C1042.14 -360.372 1045.41 -362.198 1048.46 -363.957L1081.65 -270.567C1078.01 -268.412 1073.92 -266.127 1069.46 -263.635L1069.45 -263.631C1051.06 -253.351 1026.36 -239.544 1000.3 -216.812C967.291 -188.014 932.024 -144.888 903.406 -76.099C897.976 -63.0469 886.606 -52.7459 870.341 -43.5663C854.071 -34.3837 833.412 -26.5997 810.025 -18.3144C805.948 -16.8702 801.793 -15.4124 797.57 -13.9308C753.572 1.50537 702.211 19.5244 656.092 51.5155C606.172 86.1431 594.86 125.443 585.024 159.616C584.871 160.148 584.718 160.679 584.566 161.208C584.459 161.579 584.352 161.95 584.245 162.32C579.218 179.735 574.421 195.315 565.036 208.633C555.763 221.79 541.803 232.997 517.97 241.031C481.972 253.166 407.389 273.152 339.73 212.236C324.044 198.113 302.704 199.928 280.074 210.195C257.34 220.509 231.972 239.873 206.605 263.357C157.818 308.521 108.119 369.788 75.753 414.465L44.523 321.825C76.57 277.065 127.702 213.516 177.668 167.261C202.829 143.969 227.446 125.296 249.006 115.515C270.668 105.687 287.929 105.347 300 116.216C371.13 180.257 449.675 158.944 486.152 146.647C511.369 138.146 526.822 126.005 537.203 111.274C547.472 96.7036 552.571 79.8544 557.56 62.5709C557.808 61.7128 558.055 60.8525 558.304 59.9903C568.066 26.0844 578.709 -10.8796 626.279 -43.8769C671.46 -75.2168 721.812 -92.8906 765.922 -108.373C770.115 -109.845 774.252 -111.297 778.323 -112.739C801.653 -121.004 822.941 -128.993 839.9 -138.565C856.864 -148.139 870.005 -159.573 876.421 -174.993C904.569 -242.652 939.109 -284.764 971.187 -312.749C996.542 -334.87 1020.31 -348.162 1038.68 -358.438Z" fill="url(#paint1_linear_95_57)"/>
<path d="M1073.06 -256.469C1077.11 -258.735 1080.9 -260.854 1084.38 -262.888L1117.57 -169.518L1116.93 -169.132C1113.06 -166.821 1108.66 -164.366 1103.83 -161.667L1103.83 -161.662C1085.43 -151.382 1060.73 -137.576 1034.68 -114.843C1001.67 -86.0449 966.399 -42.9192 937.781 25.8698C932.351 38.9219 920.981 49.223 904.716 58.4027C888.446 67.5853 867.787 75.3692 844.399 83.6545C840.323 85.0986 836.167 86.5567 831.944 88.0383C787.946 103.474 736.586 121.493 690.467 153.484C640.546 188.112 629.235 227.411 619.399 261.585L619.316 261.873C619.083 262.681 618.851 263.487 618.62 264.289C613.593 281.704 608.796 297.284 599.411 310.602C590.138 323.759 576.178 334.966 552.344 343C516.347 355.135 441.763 375.12 374.105 314.205C358.419 300.082 337.079 301.896 314.448 312.164C291.715 322.478 266.347 341.842 240.98 365.325C192.193 410.49 142.494 471.757 110.128 516.434L78.8978 423.794C110.945 379.034 162.077 315.485 212.042 269.23C237.203 245.938 261.821 227.265 283.38 217.484C305.043 207.656 322.304 207.316 334.375 218.184C405.505 282.225 484.05 260.912 520.526 248.616C545.744 240.115 561.197 227.974 571.578 213.243C581.847 198.673 586.946 181.823 591.935 164.54C592.183 163.682 592.43 162.821 592.679 161.959C602.441 128.053 613.084 91.0894 660.654 58.0921C705.834 26.7521 756.188 9.07812 800.298 -6.40439C804.49 -7.87607 808.627 -9.328 812.697 -10.77C836.028 -19.0352 857.316 -27.0245 874.275 -36.5959C891.239 -46.1702 904.38 -57.6036 910.796 -73.0246C938.944 -140.683 973.484 -182.795 1005.56 -210.78C1030.92 -232.901 1054.68 -246.194 1073.06 -256.469Z" fill="url(#paint2_linear_95_57)"/>
<path d="M1004.31 -460.407C1007.18 -462.016 1009.93 -463.551 1012.53 -465.034L1045.73 -371.628C1042.48 -369.74 1038.92 -367.747 1035.08 -365.6C1016.68 -355.32 991.983 -341.513 965.925 -318.781C932.916 -289.983 897.65 -246.857 869.031 -178.068C863.601 -165.016 852.231 -154.715 835.966 -145.535C819.696 -136.353 799.037 -128.569 775.65 -120.283C771.573 -118.839 767.418 -117.381 763.195 -115.9C719.197 -100.464 667.837 -82.4447 621.717 -50.4534C571.797 -15.8258 560.485 23.4738 550.649 57.6475L549.87 60.3513C544.843 77.7664 540.046 93.3461 530.661 106.664C521.388 119.822 507.428 131.028 483.595 139.062C447.597 151.198 373.014 171.183 305.355 110.267C289.669 96.1443 268.329 97.9587 245.699 108.226C222.965 118.54 197.597 137.904 172.23 161.388C123.443 206.552 73.7446 267.819 41.3782 312.496L10.1481 219.856C42.1952 175.096 93.3273 111.547 143.293 65.2921C168.454 41.9997 193.072 23.327 214.631 13.5458C236.293 3.71771 253.554 3.37851 265.625 14.2466C336.755 78.2875 415.3 56.9747 451.777 44.678C476.994 36.1771 488.021 28.5162 502.828 9.30548C515.413 -7.02182 518.196 -22.1146 523.185 -39.3979C523.423 -40.2234 523.662 -41.0507 523.9 -41.8799L523.929 -41.9787C533.691 -75.8845 544.334 -112.848 591.904 -145.846C637.085 -177.186 687.437 -194.859 731.547 -210.342C735.74 -211.814 739.877 -213.266 743.948 -214.708C767.278 -222.973 788.566 -230.962 805.525 -240.534C822.49 -250.108 835.631 -261.541 842.046 -276.962C870.194 -344.621 904.734 -386.733 936.812 -414.718C962.168 -436.839 985.935 -450.131 1004.31 -460.407Z" fill="#DF9C49"/>
<path d="M1038.68 -358.438C1042.14 -360.372 1045.41 -362.198 1048.46 -363.957L1081.65 -270.567C1078.01 -268.412 1073.92 -266.127 1069.46 -263.635L1069.45 -263.631C1051.06 -253.351 1026.36 -239.544 1000.3 -216.812C967.291 -188.014 932.024 -144.888 903.406 -76.099C897.976 -63.0469 886.606 -52.7459 870.341 -43.5663C854.071 -34.3837 833.412 -26.5997 810.025 -18.3144C805.948 -16.8702 801.793 -15.4124 797.57 -13.9308C753.572 1.50537 702.211 19.5244 656.092 51.5155C606.172 86.1431 594.86 125.443 585.024 159.616C584.871 160.148 584.718 160.679 584.566 161.208C584.459 161.579 584.352 161.95 584.245 162.32C579.218 179.735 574.421 195.315 565.036 208.633C555.763 221.79 541.803 232.997 517.97 241.031C481.972 253.166 407.389 273.152 339.73 212.236C324.044 198.113 302.704 199.928 280.074 210.195C257.34 220.509 231.972 239.873 206.605 263.357C157.818 308.521 108.119 369.788 75.753 414.465L44.523 321.825C76.57 277.065 127.702 213.516 177.668 167.261C202.829 143.969 227.446 125.296 249.006 115.515C270.668 105.687 287.929 105.347 300 116.216C371.13 180.257 449.675 158.944 486.152 146.647C511.369 138.146 526.822 126.005 537.203 111.274C547.472 96.7036 552.571 79.8544 557.56 62.5709C557.808 61.7128 558.055 60.8525 558.304 59.9903C568.066 26.0844 578.709 -10.8796 626.279 -43.8769C671.46 -75.2168 721.812 -92.8906 765.922 -108.373C770.115 -109.845 774.252 -111.297 778.323 -112.739C801.653 -121.004 822.941 -128.993 839.9 -138.565C856.864 -148.139 870.005 -159.573 876.421 -174.993C904.569 -242.652 939.109 -284.764 971.187 -312.749C996.542 -334.87 1020.31 -348.162 1038.68 -358.438Z" fill="white"/>
<path d="M1073.06 -256.469C1077.11 -258.735 1080.9 -260.854 1084.38 -262.888L1117.57 -169.518L1116.93 -169.132C1113.06 -166.821 1108.66 -164.366 1103.83 -161.667L1103.83 -161.662C1085.43 -151.382 1060.73 -137.576 1034.68 -114.843C1001.67 -86.0449 966.399 -42.9192 937.781 25.8698C932.351 38.9219 920.981 49.223 904.716 58.4027C888.446 67.5853 867.787 75.3692 844.399 83.6545C840.323 85.0986 836.167 86.5567 831.944 88.0383C787.946 103.474 736.586 121.493 690.467 153.484C640.546 188.112 629.235 227.411 619.399 261.585L619.316 261.873C619.083 262.681 618.851 263.487 618.62 264.289C613.593 281.704 608.796 297.284 599.411 310.602C590.138 323.759 576.178 334.966 552.344 343C516.347 355.135 441.763 375.12 374.105 314.205C358.419 300.082 337.079 301.896 314.448 312.164C291.715 322.478 266.347 341.842 240.98 365.325C192.193 410.49 142.494 471.757 110.128 516.434L78.8978 423.794C110.945 379.034 162.077 315.485 212.042 269.23C237.203 245.938 261.821 227.265 283.38 217.484C305.043 207.656 322.304 207.316 334.375 218.184C405.505 282.225 484.05 260.912 520.526 248.616C545.744 240.115 561.197 227.974 571.578 213.243C581.847 198.673 586.946 181.823 591.935 164.54C592.183 163.682 592.43 162.821 592.679 161.959C602.441 128.053 613.084 91.0894 660.654 58.0921C705.834 26.7521 756.188 9.07812 800.298 -6.40439C804.49 -7.87607 808.627 -9.328 812.697 -10.77C836.028 -19.0352 857.316 -27.0245 874.275 -36.5959C891.239 -46.1702 904.38 -57.6036 910.796 -73.0246C938.944 -140.683 973.484 -182.795 1005.56 -210.78C1030.92 -232.901 1054.68 -246.194 1073.06 -256.469Z" fill="#015500"/>
<path d="M1004.31 -460.407C1007.18 -462.016 1009.93 -463.551 1012.53 -465.034L1045.73 -371.628C1042.48 -369.74 1038.92 -367.747 1035.08 -365.6C1016.68 -355.32 991.983 -341.513 965.925 -318.781C932.916 -289.983 897.65 -246.857 869.031 -178.068C863.601 -165.016 852.231 -154.715 835.966 -145.535C819.696 -136.353 799.037 -128.569 775.65 -120.283C771.573 -118.839 767.418 -117.381 763.195 -115.9C719.197 -100.464 667.837 -82.4447 621.717 -50.4534C571.797 -15.8258 560.485 23.4738 550.649 57.6475L549.87 60.3513C544.843 77.7664 540.046 93.3461 530.661 106.664C521.388 119.822 507.428 131.028 483.595 139.062C447.597 151.198 373.014 171.183 305.355 110.267C289.669 96.1443 268.329 97.9587 245.699 108.226C222.965 118.54 197.597 137.904 172.23 161.388C123.443 206.552 73.7446 267.819 41.3782 312.496L10.1481 219.856C42.1952 175.096 93.3273 111.547 143.293 65.2921C168.454 41.9997 193.072 23.327 214.631 13.5458C236.293 3.71771 253.554 3.37851 265.625 14.2466C336.755 78.2875 415.3 56.9747 451.777 44.678C476.994 36.1771 488.021 28.5162 502.828 9.30548C515.413 -7.02182 518.196 -22.1146 523.185 -39.3979C523.423 -40.2234 523.662 -41.0507 523.9 -41.8799L523.929 -41.9787C533.691 -75.8845 544.334 -112.848 591.904 -145.846C637.085 -177.186 687.437 -194.859 731.547 -210.342C735.74 -211.814 739.877 -213.266 743.948 -214.708C767.278 -222.973 788.566 -230.962 805.525 -240.534C822.49 -250.108 835.631 -261.541 842.046 -276.962C870.194 -344.621 904.734 -386.733 936.812 -414.718C962.168 -436.839 985.935 -450.131 1004.31 -460.407Z" fill="url(#paint3_linear_95_57)"/>
<path d="M1038.68 -358.438C1042.14 -360.372 1045.41 -362.198 1048.46 -363.957L1081.65 -270.567C1078.01 -268.412 1073.92 -266.127 1069.46 -263.635L1069.45 -263.631C1051.06 -253.351 1026.36 -239.544 1000.3 -216.812C967.291 -188.014 932.024 -144.888 903.406 -76.099C897.976 -63.0469 886.606 -52.7459 870.341 -43.5663C854.071 -34.3837 833.412 -26.5997 810.025 -18.3144C805.948 -16.8702 801.793 -15.4124 797.57 -13.9308C753.572 1.50537 702.211 19.5244 656.092 51.5155C606.172 86.1431 594.86 125.443 585.024 159.616C584.871 160.148 584.718 160.679 584.566 161.208C584.459 161.579 584.352 161.95 584.245 162.32C579.218 179.735 574.421 195.315 565.036 208.633C555.763 221.79 541.803 232.997 517.97 241.031C481.972 253.166 407.389 273.152 339.73 212.236C324.044 198.113 302.704 199.928 280.074 210.195C257.34 220.509 231.972 239.873 206.605 263.357C157.818 308.521 108.119 369.788 75.753 414.465L44.523 321.825C76.57 277.065 127.702 213.516 177.668 167.261C202.829 143.969 227.446 125.296 249.006 115.515C270.668 105.687 287.929 105.347 300 116.216C371.13 180.257 449.675 158.944 486.152 146.647C511.369 138.146 526.822 126.005 537.203 111.274C547.472 96.7036 552.571 79.8544 557.56 62.5709C557.808 61.7128 558.055 60.8525 558.304 59.9903C568.066 26.0844 578.709 -10.8796 626.279 -43.8769C671.46 -75.2168 721.812 -92.8906 765.922 -108.373C770.115 -109.845 774.252 -111.297 778.323 -112.739C801.653 -121.004 822.941 -128.993 839.9 -138.565C856.864 -148.139 870.005 -159.573 876.421 -174.993C904.569 -242.652 939.109 -284.764 971.187 -312.749C996.542 -334.87 1020.31 -348.162 1038.68 -358.438Z" fill="url(#paint4_linear_95_57)"/>
<path d="M1073.06 -256.469C1077.11 -258.735 1080.9 -260.854 1084.38 -262.888L1117.57 -169.518L1116.93 -169.132C1113.06 -166.821 1108.66 -164.366 1103.83 -161.667L1103.83 -161.662C1085.43 -151.382 1060.73 -137.576 1034.68 -114.843C1001.67 -86.0449 966.399 -42.9192 937.781 25.8698C932.351 38.9219 920.981 49.223 904.716 58.4027C888.446 67.5853 867.787 75.3692 844.399 83.6545C840.323 85.0986 836.167 86.5567 831.944 88.0383C787.946 103.474 736.586 121.493 690.467 153.484C640.546 188.112 629.235 227.411 619.399 261.585L619.316 261.873C619.083 262.681 618.851 263.487 618.62 264.289C613.593 281.704 608.796 297.284 599.411 310.602C590.138 323.759 576.178 334.966 552.344 343C516.347 355.135 441.763 375.12 374.105 314.205C358.419 300.082 337.079 301.896 314.448 312.164C291.715 322.478 266.347 341.842 240.98 365.325C192.193 410.49 142.494 471.757 110.128 516.434L78.8978 423.794C110.945 379.034 162.077 315.485 212.042 269.23C237.203 245.938 261.821 227.265 283.38 217.484C305.043 207.656 322.304 207.316 334.375 218.184C405.505 282.225 484.05 260.912 520.526 248.616C545.744 240.115 561.197 227.974 571.578 213.243C581.847 198.673 586.946 181.823 591.935 164.54C592.183 163.682 592.43 162.821 592.679 161.959C602.441 128.053 613.084 91.0894 660.654 58.0921C705.834 26.7521 756.188 9.07812 800.298 -6.40439C804.49 -7.87607 808.627 -9.328 812.697 -10.77C836.028 -19.0352 857.316 -27.0245 874.275 -36.5959C891.239 -46.1702 904.38 -57.6036 910.796 -73.0246C938.944 -140.683 973.484 -182.795 1005.56 -210.78C1030.92 -232.901 1054.68 -246.194 1073.06 -256.469Z" fill="url(#paint5_linear_95_57)"/>
<path d="M508.702 -507.186H1551.33V552.17H508.702V-507.186Z" fill="#D9D9D9"/>
<path d="M508.702 -507.186H1551.33V552.17H508.702V-507.186Z" fill="#D9D9D9"/>
</g>
<defs>
<linearGradient id="paint0_linear_95_57" x1="-1.0321e-06" y1="-23.7621" x2="1575.2" y2="-65.0327" gradientUnits="userSpaceOnUse">
<stop stop-color="white" stop-opacity="0"/>
<stop offset="0.185635" stop-color="white" stop-opacity="0.0294118"/>
<stop offset="0.255" stop-color="white" stop-opacity="0.15"/>
<stop offset="0.302758" stop-color="white" stop-opacity="0.0295302"/>
<stop offset="0.464276" stop-color="white" stop-opacity="0.02"/>
<stop offset="0.495" stop-color="white" stop-opacity="0.08"/>
<stop offset="0.645929" stop-color="white" stop-opacity="0.02"/>
<stop offset="0.760426" stop-color="white" stop-opacity="0.02"/>
<stop offset="0.814897" stop-color="white" stop-opacity="0.1"/>
<stop offset="1" stop-color="white" stop-opacity="0"/>
</linearGradient>
<linearGradient id="paint1_linear_95_57" x1="-1.0321e-06" y1="-23.7621" x2="1575.2" y2="-65.0327" gradientUnits="userSpaceOnUse">
<stop stop-color="white" stop-opacity="0"/>
<stop offset="0.185635" stop-color="white" stop-opacity="0.0294118"/>
<stop offset="0.255" stop-color="white" stop-opacity="0.15"/>
<stop offset="0.302758" stop-color="white" stop-opacity="0.0295302"/>
<stop offset="0.464276" stop-color="white" stop-opacity="0.02"/>
<stop offset="0.495" stop-color="white" stop-opacity="0.08"/>
<stop offset="0.645929" stop-color="white" stop-opacity="0.02"/>
<stop offset="0.760426" stop-color="white" stop-opacity="0.02"/>
<stop offset="0.814897" stop-color="white" stop-opacity="0.1"/>
<stop offset="1" stop-color="white" stop-opacity="0"/>
</linearGradient>
<linearGradient id="paint2_linear_95_57" x1="-1.0321e-06" y1="-23.7621" x2="1575.2" y2="-65.0327" gradientUnits="userSpaceOnUse">
<stop stop-color="white" stop-opacity="0"/>
<stop offset="0.185635" stop-color="white" stop-opacity="0.0294118"/>
<stop offset="0.255" stop-color="white" stop-opacity="0.15"/>
<stop offset="0.302758" stop-color="white" stop-opacity="0.0295302"/>
<stop offset="0.464276" stop-color="white" stop-opacity="0.02"/>
<stop offset="0.495" stop-color="white" stop-opacity="0.08"/>
<stop offset="0.645929" stop-color="white" stop-opacity="0.02"/>
<stop offset="0.760426" stop-color="white" stop-opacity="0.02"/>
<stop offset="0.814897" stop-color="white" stop-opacity="0.1"/>
<stop offset="1" stop-color="white" stop-opacity="0"/>
</linearGradient>
<linearGradient id="paint3_linear_95_57" x1="-1.0321e-06" y1="-23.7621" x2="1575.2" y2="-65.0327" gradientUnits="userSpaceOnUse">
<stop stop-color="white" stop-opacity="0"/>
<stop offset="0.185635" stop-color="white" stop-opacity="0.0294118"/>
<stop offset="0.255" stop-color="white" stop-opacity="0.15"/>
<stop offset="0.302758" stop-color="white" stop-opacity="0.0295302"/>
<stop offset="0.464276" stop-color="white" stop-opacity="0.02"/>
<stop offset="0.495" stop-color="white" stop-opacity="0.08"/>
<stop offset="0.645929" stop-color="white" stop-opacity="0.02"/>
<stop offset="0.760426" stop-color="white" stop-opacity="0.02"/>
<stop offset="0.814897" stop-color="white" stop-opacity="0.1"/>
<stop offset="1" stop-color="white" stop-opacity="0"/>
</linearGradient>
<linearGradient id="paint4_linear_95_57" x1="-1.0321e-06" y1="-23.7621" x2="1575.2" y2="-65.0327" gradientUnits="userSpaceOnUse">
<stop stop-color="white" stop-opacity="0"/>
<stop offset="0.185635" stop-color="white" stop-opacity="0.0294118"/>
<stop offset="0.255" stop-color="white" stop-opacity="0.15"/>
<stop offset="0.302758" stop-color="white" stop-opacity="0.0295302"/>
<stop offset="0.464276" stop-color="white" stop-opacity="0.02"/>
<stop offset="0.495" stop-color="white" stop-opacity="0.08"/>
<stop offset="0.645929" stop-color="white" stop-opacity="0.02"/>
<stop offset="0.760426" stop-color="white" stop-opacity="0.02"/>
<stop offset="0.814897" stop-color="white" stop-opacity="0.1"/>
<stop offset="1" stop-color="white" stop-opacity="0"/>
</linearGradient>
<linearGradient id="paint5_linear_95_57" x1="-1.0321e-06" y1="-23.7621" x2="1575.2" y2="-65.0327" gradientUnits="userSpaceOnUse">
<stop stop-color="white" stop-opacity="0"/>
<stop offset="0.185635" stop-color="white" stop-opacity="0.0294118"/>
<stop offset="0.255" stop-color="white" stop-opacity="0.15"/>
<stop offset="0.302758" stop-color="white" stop-opacity="0.0295302"/>
<stop offset="0.464276" stop-color="white" stop-opacity="0.02"/>
<stop offset="0.495" stop-color="white" stop-opacity="0.08"/>
<stop offset="0.645929" stop-color="white" stop-opacity="0.02"/>
<stop offset="0.760426" stop-color="white" stop-opacity="0.02"/>
<stop offset="0.814897" stop-color="white" stop-opacity="0.1"/>
<stop offset="1" stop-color="white" stop-opacity="0"/>
</linearGradient>
<clipPath id="clip0_95_57">
<rect width="509" height="522" fill="white"/>
</clipPath>
</defs>
</svg>
